Coordinates
version=1
nRows=11
nColumns=36
inDegrees=yes

Units are S.I. units (second, meters, Newtons, ...)
If the header above contains a line with 'inDegrees', this indicates whether rotational values are in degrees (yes) or radians (no).

endheader
time	pelvis_tilt	pelvis_list	pelvis_rotation	pelvis_tx	pelvis_ty	pelvis_tz	hip_flexion_r	hip_adduction_r	hip_rotation_r	knee_angle_r	knee_angle_r_beta	ankle_angle_r	subtalar_angle_r	mtp_angle_r	hip_flexion_l	hip_adduction_l	hip_rotation_l	knee_angle_l	knee_angle_l_beta	ankle_angle_l	subtalar_angle_l	mtp_angle_l	lumbar_extension	lumbar_bending	lumbar_rotation	arm_flex_r	arm_add_r	arm_rot_r	elbow_flex_r	pro_sup_r	arm_flex_l	arm_add_l	arm_rot_l	elbow_flex_l	pro_sup_l
      3.53333330	    -37.35401237	      1.38405689	      5.89099274	      0.56217894	      0.68698164	      0.18612970	    105.46005727	    -27.88251481	     -1.33232481	     85.35667120	      1.48975495	     21.76156230	      5.01959154	     -7.49999987	     99.86578314	     -7.46172041	     -2.79611363	     84.77224200	      1.47955474	     27.55061023	     -3.01283470	     -7.49999987	    -42.35146378	      5.96581552	     14.20653916	    117.92846969	    -12.15040747	     85.90745598	    134.58500364	     76.37565665	    107.83869745	      5.37278550	     53.30843271	    116.29267489	     98.37392196
      3.55000000	    -37.30233258	      1.51998939	      5.81311261	      0.57092135	      0.69647353	      0.17484812	    104.83947834	    -27.92765762	     -1.67028011	     84.46700479	      1.47422734	     21.42978866	      5.14909388	     -7.49999987	     99.33504974	     -7.23247417	     -2.93909752	     84.06603734	      1.46722914	     27.27408313	     -3.19847704	     -7.49999987	    -42.70545427	      5.94463881	     13.60867987	    116.92864199	    -11.86300932	     85.55004551	    134.73084981	     75.70115578	    107.46729205	      5.47666788	     53.40938600	    116.36132490	     96.83915006
      3.56666670	    -37.13264905	      1.55367647	      5.70995188	      0.56327641	      0.70142646	      0.19223202	    103.91335078	    -27.71820775	     -2.05931191	     83.45888511	      1.45663234	     21.05168451	      5.27878049	     -7.49999987	     98.64866966	     -7.17146255	     -2.95647274	     83.22707299	      1.45258645	     26.83714692	     -3.73969439	     -7.49999987	    -42.46866581	      5.58390750	     14.14286250	    115.30300289	     -9.86554188	     82.85483114	    133.09552335	     74.94511877	    106.89052437	      3.97185172	     52.84919551	    117.46859294	     96.55817367
      3.58333330	    -36.73024558	      1.65442029	      5.67152599	      0.58459580	      0.70987160	      0.19216334	    102.39201810	    -27.62980654	     -2.46774235	     82.29675022	      1.43634926	     20.89256550	      5.60648454	     -7.49999987	     97.31677289	     -7.07209195	     -2.99424229	     82.15220949	      1.43382654	     27.01504635	     -3.65612746	     -7.49999987	    -42.26318816	      5.10960530	     13.37858244	    112.52451919	     -8.28345825	     83.52443954	    134.11272162	     74.43956245	    105.03257558	      3.86993880	     53.33194431	    119.69665810	     95.55815938
      3.60000000	    -36.33041049	      1.48841476	      5.59861192	      0.55813043	      0.71112777	      0.20542342	    101.11121406	    -27.19763521	     -2.86086222	     81.31611152	      1.41923388	     20.32133195	      5.28382870	     -7.49999987	     96.40970813	     -7.28930676	     -2.84982224	     81.27661533	      1.41854454	     26.81574371	     -3.74319471	     -7.49999987	    -41.84688585	      4.85441322	     13.47274219	    112.39465527	     -6.07732479	     80.12911340	    132.50643288	     73.74467268	    106.25728085	      2.16720477	     52.11721190	    121.71565449	     95.31666361
      3.61666670	    -36.06724574	      1.43308550	      5.54435542	      0.56824862	      0.72522626	      0.20465447	     99.77889551	    -26.85514746	     -3.33754464	     80.07434975	      1.39756105	     19.91309766	      5.49162772	     -7.49999987	     95.36905815	     -7.44173272	     -2.83565779	     80.09034511	      1.39784022	     26.53386188	     -3.83939044	     -7.49999987	    -41.17456165	      4.42811558	     12.55058024	    111.09988536	     -5.43428643	     79.89116043	    132.17008434	     73.23035631	    105.82539734	      1.41342968	     53.49692265	    121.71972462	     94.55932006
      3.63333330	    -35.53809989	      1.31126136	      5.56468399	      0.55889575	      0.73071937	      0.20984736	     98.26313003	    -26.49814006	     -3.79451699	     78.89571986	      1.37699008	     19.31238638	      5.42351003	     -7.49999987	     94.12879755	     -7.62546214	     -2.80659971	     78.92216409	      1.37745162	     26.03019606	     -3.95189097	     -7.49999987	    -40.55384953	      3.98781165	     12.08727251	    109.84012973	     -4.61228828	     77.77718433	    130.79188587	     73.06226733	    106.61891044	      0.32460574	     53.38340683	    122.50020611	     94.83939136
      3.65000000	    -35.02460394	      1.17907795	      5.65358981	      0.55254327	      0.74407877	      0.21904262	     96.61800586	    -26.09544490	     -4.29505244	     77.48314334	      1.35233597	     18.65975028	      5.48135700	     -7.49999987	     92.79339924	     -7.76094883	     -2.77406792	     77.50079469	      1.35264404	     25.42318696	     -4.07536743	     -7.49999987	    -39.84284144	      3.52336515	     11.05880513	    108.65835818	     -3.05340312	     74.91691534	    129.89691964	     71.99851372	    108.10805444	     -1.12022689	     54.11194768	    123.46136468	     92.28396406
      3.66666670	    -34.42069937	      0.96543331	      5.69346665	      0.57211363	      0.75729727	      0.21979086	     94.28033854	    -25.67470589	     -5.08330431	     75.63403155	      1.32006288	     18.17209488	      5.54863051	     -7.49999987	     90.89069103	     -7.92277832	     -2.63489580	     75.74357385	      1.32197475	     24.88701782	     -4.06447443	     -7.49999987	    -38.93477264	      3.20375077	     10.43186546	    105.33503736	     -1.36047592	     74.14070974	    129.59089903	     72.17950607	    105.89330767	     -2.01658746	     54.88463995	    125.15378138	     91.68436382
      3.68333330	    -33.59008512	      0.95950320	      5.71931759	      0.57483117	      0.77405450	      0.21054234	     91.37483613	    -25.31061156	     -5.78495974	     73.32575375	      1.27977583	     17.69545273	      5.60668933	     -7.49999987	     88.23814170	     -7.95672487	     -2.74511415	     73.55201498	      1.28372483	     24.34888424	     -3.82717175	     -7.49999987	    -38.27644142	      2.92248254	      9.61620203	    103.21586436	     -1.64975486	     74.61872389	    130.70356624	     72.20028477	    103.77281260	     -1.44415255	     55.64022854	    126.03429232	     90.87323130
      3.70000000	    -32.83306092	      0.89674774	      5.70638429	      0.57607317	      0.78688104	      0.20911439	     88.47864801	    -24.89398679	     -6.50097188	     70.86653893	      1.23685443	     17.10269895	      5.59677698	     -7.49999987	     85.64377762	     -7.99633843	     -2.86455866	     71.34883832	      1.24527215	     23.79107585	     -3.52761350	     -7.49999987	    -36.99107530	      2.52167501	      8.95143288	     99.56307252	     -1.99610940	     71.73959231	    132.19528151	     85.97118689	    101.41111862	     -0.27479943	     54.68036583	    126.77464198	     96.21862660
